# xmcd
#
# Track frame offsets:
#	182
#	15790
#	29887
#	45485
#	59867
#	73755
#	85822
#	100935
#	116267
#	130322
#	144140
#	161755
#	176420
#	195072
#
# Disc length: 2792 seconds
#
# Revision: 1
# Processed by: cddbd v1.5.2PL0 Copyright (c) Steve Scherf et al.
# Submitted via: audiograbber 1.83.01
#
DISCID=b40ae60e
DTITLE=Various Artist - RDR Countrypak 6
DYEAR=1991
DGENRE=Country
TTITLE0=Colleen Sevenson - Broken Lovers
TTITLE1=D. Jentes - Build Me Up - to Let Me Down
TTITLE2=Lini Evans - Dream That Come True
TTITLE3=Larry Goguen - Green With Envy
TTITLE4=D.J. Hopson - Have a Heart
TTITLE5=Red Hot Burritos - Lonely Without You
TTITLE6=Dieter Boehme - Shoppin' in the U.S.A.
TTITLE7=Donna Vallance - Sunday Driver
TTITLE8=Kenny Hess - The Fire in You
TTITLE9=Alex Bowie - Western Swing
TTITLE10=Morris P. Rainville - Would'a Been Here Much Sooner
TTITLE11=Morris P. Rainville - Born in the Country
TTITLE12=Red Hot Burritos - Feelin' Like a Fool
TTITLE13=Alex Bowie - Old Favorite Chair
EXTD=
EXTT0=
EXTT1=
EXTT2=
EXTT3=
EXTT4=
EXTT5=
EXTT6=
EXTT7=
EXTT8=
EXTT9=
EXTT10=
EXTT11=
EXTT12=
EXTT13=
PLAYORDER=
